Coordinates
version=1
nRows=16
nColumns=24
inDegrees=yes

Units are S.I. units (second, meters, Newtons, ...)
If the header above contains a line with 'inDegrees', this indicates whether rotational values are in degrees (yes) or radians (no).

endheader
time	pelvis_tilt	pelvis_list	pelvis_rotation	pelvis_tx	pelvis_ty	pelvis_tz	hip_flexion_r	hip_adduction_r	hip_rotation_r	knee_angle_r	ankle_angle_r	subtalar_angle_r	mtp_angle_r	hip_flexion_l	hip_adduction_l	hip_rotation_l	knee_angle_l	ankle_angle_l	subtalar_angle_l	mtp_angle_l	lumbar_extension	lumbar_bending	lumbar_rotation
0.950000	8.912140	3.528961	-180.338068	0.305476	0.559604	-1.219702	70.124118	-25.591179	-9.815803	-103.079440	37.603531	7.322480	0.000000	75.526778	-32.505158	0.738526	-102.457800	36.619865	13.538532	0.000000	-17.379856	2.069559	2.976139
0.955000	8.928297	3.511049	-180.308278	0.305210	0.559147	-1.219664	70.176118	-25.632313	-9.766383	-103.176073	37.679198	7.310915	0.000000	75.577255	-32.435758	0.826474	-102.450587	36.477077	13.494849	0.000000	-17.370395	2.165608	2.692669
0.960000	8.883901	3.524937	-180.321357	0.304957	0.558748	-1.219664	70.160380	-25.623058	-9.741935	-103.263707	37.765983	7.545417	0.000000	75.575211	-32.443713	0.892448	-102.551363	36.526114	13.400777	0.000000	-17.373282	2.190915	2.717157
0.965000	8.839905	3.523699	-180.325693	0.304728	0.558329	-1.219721	70.164478	-25.623439	-9.706239	-103.374258	37.799783	7.540221	0.000000	75.580798	-32.457966	0.943212	-102.657412	36.553965	13.385859	0.000000	-17.375404	2.189510	2.715178
0.970000	8.692287	3.404726	-180.235577	0.304296	0.558206	-1.219210	70.054611	-25.834751	-9.569132	-103.451550	37.890360	7.660203	0.000000	75.334947	-32.306114	0.810934	-102.736807	36.667781	13.349825	0.000000	-17.467388	2.154295	2.616833
0.975000	8.705229	3.501947	-180.322245	0.304177	0.557787	-1.219759	70.067483	-25.646819	-9.633890	-103.528193	37.908868	7.532675	0.000000	75.452992	-32.507011	0.922881	-102.883122	36.909790	13.534556	0.000000	-17.414200	2.187619	2.739988
0.980000	8.670907	3.494364	-180.297546	0.303965	0.557539	-1.219740	70.038859	-25.676654	-9.624178	-103.584517	37.939030	7.504761	0.000000	75.432286	-32.487625	0.947900	-102.934899	36.953554	13.535286	0.000000	-17.398633	2.192754	2.737054
0.985000	8.569489	3.519281	-180.321902	0.303590	0.557454	-1.219809	69.913172	-25.652103	-9.636723	-103.640590	37.999208	7.539844	0.000000	75.315818	-32.609906	0.945482	-103.221908	37.411676	13.872055	0.000000	-17.447209	2.214764	2.777839
0.990000	8.620927	3.387099	-180.277356	0.303557	0.557318	-1.219505	70.054255	-25.787652	-9.484764	-103.671122	38.004753	7.565705	0.000000	75.400860	-32.327889	1.562310	-102.526028	36.512009	14.477973	0.000000	-17.363241	2.127661	2.681592
0.995000	8.588292	3.385495	-180.280626	0.303323	0.557311	-1.219527	70.005360	-25.787688	-9.483476	-103.691971	38.041183	7.544878	0.000000	75.349587	-32.356000	1.549472	-102.540575	36.561918	14.494390	0.000000	-17.345874	2.131188	2.697699
1.000000	8.557020	3.381047	-180.261714	0.303115	0.557400	-1.219606	69.936755	-25.794356	-9.490782	-103.690080	38.078294	7.545961	0.000000	75.298036	-32.369849	1.526984	-102.538419	36.564352	14.528362	0.000000	-17.331240	2.130192	2.660633
1.005000	8.557198	3.380652	-180.246258	0.302941	0.557502	-1.219682	69.896517	-25.801421	-9.506833	-103.671507	38.087874	7.541037	0.000000	75.274311	-32.379339	1.502960	-102.522570	36.567418	14.532357	0.000000	-17.280585	2.129572	2.655604
1.010000	8.527914	3.372498	-180.230500	0.302728	0.557683	-1.219702	69.824105	-25.823261	-9.522705	-103.657454	38.123576	7.531033	0.000000	75.201777	-32.389326	1.466272	-102.493043	36.607496	14.564589	0.000000	-17.230347	2.127189	2.682464
1.015000	8.498292	3.385485	-180.246435	0.302479	0.557940	-1.219720	69.739030	-25.791437	-9.484914	-103.641625	38.133240	7.739711	0.000000	75.095390	-32.444021	1.393824	-102.458969	36.678484	14.551278	0.000000	-17.232835	2.150640	2.656261
1.020000	8.475248	3.364168	-180.247478	0.302257	0.558240	-1.219648	69.677697	-25.831021	-9.557785	-103.593630	38.142115	7.567728	0.000000	75.013615	-32.455266	1.375571	-102.422000	36.621444	14.652505	0.000000	-17.203388	2.143478	2.667266
1.025000	8.464242	3.384234	-180.274676	0.302044	0.558593	-1.219699	69.594054	-25.782418	-9.545633	-103.546106	38.096385	7.687392	0.000000	74.943318	-32.525450	1.342669	-102.368063	36.626574	14.662882	0.000000	-17.161277	2.171690	2.664594
